<?xml version="1.0" encoding="UTF-8"?>
<svg width="51px" height="51px" viewBox="0 0 51 51" version="1.1" xmlns="http://www.w3.org/2000/svg" xmlns:xlink="http://www.w3.org/1999/xlink">
    <!-- Generator: Sketch 51.3 (57544) - http://www.bohemiancoding.com/sketch -->
    <title>Combined Shape</title>
    <desc>Created with Sketch.</desc>
    <defs></defs>
    <g id="Homepage" stroke="none" stroke-width="1" fill="none" fill-rule="evenodd" fill-opacity="0.75">
        <g id="New-user-DESKTOP-move" transform="translate(-128.000000, -243.000000)" fill="#FFFFFF" fill-rule="nonzero">
            <g id="Group-12" transform="translate(128.000000, 153.000000)">
                <g id="Group-4" transform="translate(0.000000, 89.000000)">
                    <g id="Group-3-Copy" transform="translate(25.500000, 26.500000) rotate(-180.000000) translate(-25.500000, -26.500000) translate(0.000000, 1.000000)">
                        <path d="M25.5,51 C11.4394777,51 -7.38964445e-13,39.5605223 -7.38964445e-13,25.5 C-7.38964445e-13,11.4394777 11.4385502,-5.68434189e-14 25.5,-5.68434189e-14 C39.5614498,-5.68434189e-14 51,11.4385502 51,25.5 C51,39.5614498 39.5605223,51 25.5,51 Z M22.6445922,34.5495017 C23.0655677,34.5495017 23.4865432,34.3923529 23.8077562,34.0769789 L31.6484244,26.3809926 C31.9575783,26.0774586 32.1307921,25.6652121 32.1296959,25.2357438 C32.1285996,24.8051991 31.9531931,24.3940289 31.642943,24.0915713 L23.8022748,16.4677012 C23.1565598,15.839106 22.115084,15.8455641 21.4759468,16.4784648 C20.8368095,17.1124419 20.842291,18.1349855 21.4869097,18.7625044 L28.153451,25.2443547 L21.4814282,31.7929393 C20.8400984,32.4236873 20.8400984,33.4462309 21.4814282,34.0769789 C21.8026413,34.3923529 22.2236168,34.5495017 22.6445922,34.5495017 Z" id="Combined-Shape"></path>
                    </g>
                </g>
            </g>
        </g>
    </g>
</svg>