<?xml version="1.0" encoding="UTF-8"?>
<svg width="60px" height="60px" viewBox="0 0 60 60" version="1.1" xmlns="http://www.w3.org/2000/svg" xmlns:xlink="http://www.w3.org/1999/xlink">
    <!-- Generator: Sketch 51.3 (57544) - http://www.bohemiancoding.com/sketch -->
    <title>Artboard Copy</title>
    <desc>Created with Sketch.</desc>
    <defs>
        <linearGradient x1="0%" y1="100%" x2="100%" y2="0%" id="linearGradient-1">
            <stop stop-color="#001CB0" offset="0%"></stop>
            <stop stop-color="#0075CC" offset="100%"></stop>
        </linearGradient>
    </defs>
    <g id="Artboard-Copy" stroke="none" stroke-width="1" fill="none" fill-rule="evenodd">
        <g id="noun_Conversation_227729" transform="translate(3.000000, 5.000000)" fill="url(#linearGradient-1)" fill-rule="nonzero">
            <g id="Group">
                <path d="M49.722973,28.8378378 C52.25,24.6013514 53.0675676,19.7702703 51.8783784,14.9391892 C49.7972973,6.39189189 42.0675676,0.445945946 33,0.445945946 C31.5135135,0.445945946 30.027027,0.594594595 28.6148649,0.966216216 C23.4864865,2.15540541 19.1013514,5.2027027 16.4256757,9.58783784 C16.2027027,9.95945946 15.9797297,10.2567568 15.8310811,10.6283784 C10.8513514,11.8918919 6.76351351,15.0135135 4.16216216,19.3243243 C1.63513514,23.6351351 0.891891892,28.6148649 2.15540541,33.4459459 C2.67567568,35.527027 3.56756757,37.5337838 4.83108108,39.3175676 L0.297297297,50.2432432 L11.3716216,45.1891892 C14.2702703,46.8243243 17.5405405,47.6418919 20.8851351,47.6418919 C22.4459459,47.6418919 24.0810811,47.4189189 25.6418919,47.0472973 C30.7702703,45.7837838 35.0067568,42.6621622 37.6824324,38.2027027 C37.8310811,37.9797297 37.9797297,37.6824324 38.1283784,37.4594595 C40.0608108,36.9391892 41.8445946,36.1959459 43.4797297,35.0810811 L54.6283784,39.6891892 L49.722973,28.8378378 Z M42.6621622,32.6283784 C41.6216216,33.2972973 40.5810811,33.8918919 39.4662162,34.3378378 C38.9459459,34.5608108 38.4256757,34.7094595 37.9054054,34.8581081 C37.5337838,35.0067568 37.1621622,35.0810811 36.7905405,35.1554054 C36.6418919,35.1554054 36.4932432,35.2297297 36.3445946,35.2297297 C35.2297297,35.4527027 34.0405405,35.6013514 32.9256757,35.6013514 C25.0472973,35.6013514 18.2837838,30.3986486 16.5,22.9662162 C15.6824324,19.5472973 16.0540541,15.9797297 17.4662162,12.7837838 C17.6891892,12.3378378 17.9121622,11.8175676 18.2094595,11.3716216 C18.2837838,11.222973 18.4324324,11 18.5067568,10.8513514 C18.7297297,10.5540541 18.8783784,10.2567568 19.1013514,9.95945946 C21.4797297,6.61486486 24.972973,4.31081081 29.1351351,3.34459459 C30.3986486,3.0472973 31.7364865,2.89864865 33,2.89864865 C40.8783784,2.89864865 47.5675676,8.10135135 49.3513514,15.5337838 C50.3918919,19.8445946 49.5743243,24.3040541 47.1216216,28.0202703 L46.8243243,28.6891892 L49.722973,34.9324324 L43.2567568,32.2567568 L42.6621622,32.6283784 Z M12.1148649,42.6621622 L11.5202703,42.3648649 L5.12837838,45.2635135 L7.72972973,38.9459459 L7.28378378,38.3513514 C6.02027027,36.6418919 5.12837838,34.7837838 4.60810811,32.777027 C3.49324324,28.6148649 4.16216216,24.3040541 6.39189189,20.5878378 C8.25,17.4662162 11.0743243,15.0135135 14.4932432,13.6756757 C13.4527027,16.8716216 13.3040541,20.2905405 14.1216216,23.5608108 C15.1621622,27.8716216 17.6148649,31.5135135 20.9594595,34.0405405 C24.3040541,36.6418919 28.4662162,38.1283784 33,38.1283784 C33.5945946,38.1283784 34.1891892,38.1283784 34.8581081,38.0540541 C32.5540541,41.3243243 29.1351351,43.6283784 25.1216216,44.5945946 C23.7837838,44.8918919 22.3716216,45.1148649 20.9594595,45.1148649 C17.8378378,45.1148649 14.7905405,44.2972973 12.1148649,42.6621622 Z" id="Shape" stroke="url(#linearGradient-1)"></path>
                <path d="M26.2364865,18.6554054 C25.4189189,18.6554054 24.75,19.3243243 24.75,20.0675676 C24.75,20.8851351 25.4189189,21.4797297 26.2364865,21.4797297 C27.0540541,21.4797297 27.722973,20.8108108 27.722973,20.0675676 C27.722973,19.3243243 27.0540541,18.6554054 26.2364865,18.6554054 Z" id="Shape"></path>
                <path d="M34.9324324,19.6959459 C34.8581081,19.3986486 34.6351351,19.1013514 34.3378378,18.8783784 C34.3378378,18.8783784 34.3378378,18.8783784 34.3378378,18.8783784 C34.1148649,18.7297297 33.8175676,18.6554054 33.5202703,18.6554054 C32.7027027,18.6554054 32.0337838,19.3243243 32.0337838,20.0675676 C32.0337838,20.8851351 32.7027027,21.4797297 33.5202703,21.4797297 C34.3378378,21.4797297 35.0067568,20.8108108 35.0067568,20.0675676 C35.0067568,19.9189189 35.0067568,19.8445946 34.9324324,19.6959459 C34.9324324,19.6959459 34.9324324,19.6959459 34.9324324,19.6959459 Z" id="Shape"></path>
                <path d="M40.8040541,18.6554054 C39.9864865,18.6554054 39.3175676,19.3243243 39.3175676,20.0675676 C39.3175676,20.8851351 39.9864865,21.4797297 40.8040541,21.4797297 C41.6216216,21.4797297 42.2905405,20.8108108 42.2905405,20.0675676 C42.2905405,19.3243243 41.6216216,18.6554054 40.8040541,18.6554054 Z" id="Shape"></path>
            </g>
        </g>
    </g>
</svg>