<?xml version="1.0" encoding="UTF-8"?>
<svg width="60px" height="60px" viewBox="0 0 60 60" version="1.1" xmlns="http://www.w3.org/2000/svg" xmlns:xlink="http://www.w3.org/1999/xlink">
    <!-- Generator: Sketch 51.3 (57544) - http://www.bohemiancoding.com/sketch -->
    <title>Artboard Copy 2</title>
    <desc>Created with Sketch.</desc>
    <defs>
        <linearGradient x1="0%" y1="100%" x2="100%" y2="0%" id="linearGradient-1">
            <stop stop-color="#001CB0" offset="0%"></stop>
            <stop stop-color="#0075CC" offset="100%"></stop>
        </linearGradient>
        <linearGradient x1="6.37169426%" y1="100%" x2="94.0287229%" y2="0%" id="linearGradient-2">
            <stop stop-color="#001CB0" offset="0%"></stop>
            <stop stop-color="#0075CC" offset="100%"></stop>
        </linearGradient>
    </defs>
    <g id="Artboard-Copy-2" stroke="none" stroke-width="1" fill="none" fill-rule="evenodd">
        <g id="noun_solar-energy_853048" transform="translate(3.000000, 5.000000)" fill-rule="nonzero" stroke="url(#linearGradient-1)">
            <g id="Group">
                <path d="M28.9620253,9.74683544 C29.9367089,9.74683544 30.7721519,8.91139241 30.7721519,7.93670886 L30.7721519,1.94936709 C30.7721519,0.974683544 29.9367089,0.139240506 28.9620253,0.139240506 C27.9873418,0.139240506 27.1518987,0.974683544 27.1518987,1.94936709 L27.1518987,7.93670886 C27.1518987,8.98101266 27.9177215,9.74683544 28.9620253,9.74683544 Z" id="Shape" fill="url(#linearGradient-1)"></path>
                <path d="M12.8101266,15.3860759 C13.1582278,15.7341772 13.6455696,15.943038 14.0632911,15.943038 C14.5506329,15.943038 14.9683544,15.7341772 15.3164557,15.3860759 C16.0126582,14.6898734 16.0126582,13.5759494 15.3164557,12.8797468 L11.1392405,8.63291139 C10.443038,7.93670886 9.32911392,7.93670886 8.63291139,8.63291139 C7.93670886,9.32911392 7.93670886,10.443038 8.63291139,11.1392405 L12.8101266,15.3860759 Z" id="Shape" fill="url(#linearGradient-1)"></path>
                <path d="M9.74683544,28.9620253 C9.74683544,27.9873418 8.91139241,27.1518987 7.93670886,27.1518987 L1.94936709,27.1518987 C0.974683544,27.1518987 0.139240506,27.9873418 0.139240506,28.9620253 C0.139240506,29.9367089 0.974683544,30.7721519 1.94936709,30.7721519 L7.93670886,30.7721519 C8.91139241,30.7721519 9.74683544,29.9367089 9.74683544,28.9620253 Z" id="Shape" fill="url(#linearGradient-1)"></path>
                <path d="M12.8101266,42.5379747 L8.56329114,46.7848101 C7.86708861,47.4810127 7.86708861,48.5949367 8.56329114,49.2911392 C8.91139241,49.6392405 9.39873418,49.8481013 9.8164557,49.8481013 C10.3037975,49.8481013 10.721519,49.6392405 11.0696203,49.2911392 L15.3164557,45.0443038 C16.0126582,44.3481013 16.0126582,43.2341772 15.3164557,42.5379747 C14.6202532,41.8417722 13.5063291,41.8417722 12.8101266,42.5379747 Z" id="Shape" fill="url(#linearGradient-1)"></path>
                <path d="M43.7911392,15.8734177 C44.278481,15.8734177 44.6962025,15.664557 45.0443038,15.3164557 L49.2911392,11.0696203 C49.9873418,10.3734177 49.9873418,9.25949367 49.2911392,8.56329114 C48.5949367,7.86708861 47.4810127,7.86708861 46.7848101,8.56329114 L42.5379747,12.8101266 C41.8417722,13.5063291 41.8417722,14.6202532 42.5379747,15.3164557 C42.8860759,15.7341772 43.3037975,15.8734177 43.7911392,15.8734177 Z" id="Shape" fill="url(#linearGradient-1)"></path>
                <path d="M54.0253165,45.2531646 L51.0316456,45.2531646 L51.0316456,41.0759494 L54.0253165,41.0759494 C54.443038,41.0759494 54.8607595,40.7278481 54.8607595,40.2405063 C54.8607595,39.8227848 54.5126582,39.4050633 54.0253165,39.4050633 L51.0316456,39.4050633 L51.0316456,37.5949367 C51.0316456,37.0379747 50.5443038,36.5506329 49.9873418,36.5506329 C49.4303797,36.5506329 48.943038,37.0379747 48.943038,37.5949367 L48.943038,37.943038 L48.1772152,37.943038 C46.7151899,37.943038 45.3227848,38.5 44.2088608,39.4746835 C43.6518987,40.0316456 43.164557,40.6582278 42.8860759,41.3544304 L28.9620253,41.3544304 C22.1392405,41.3544304 16.5,35.7848101 16.5,28.8924051 C16.5,22 22.0696203,16.4303797 28.9620253,16.4303797 C35.8544304,16.4303797 41.4240506,22 41.4240506,28.8924051 C41.4240506,29.8670886 42.2594937,30.7025316 43.2341772,30.7025316 C44.2088608,30.7025316 45.0443038,29.8670886 45.0443038,28.8924051 C45.0443038,20.0506329 37.8734177,12.8797468 29.0316456,12.8797468 C20.1898734,12.8797468 13.0189873,20.0506329 13.0189873,28.8924051 C13.0189873,37.7341772 20.1898734,44.9050633 29.0316456,44.9050633 L42.9556962,44.9050633 C43.2341772,45.6012658 43.6518987,46.2974684 44.278481,46.8544304 C45.3227848,47.8291139 46.7151899,48.3860759 48.2468354,48.3860759 C48.2468354,48.3860759 48.2468354,48.3860759 48.2468354,48.3860759 L49.0126582,48.3860759 L49.0126582,48.7341772 C49.0126582,49.2911392 49.5,49.778481 50.056962,49.778481 C50.6139241,49.778481 51.1012658,49.2911392 51.1012658,48.7341772 L51.1012658,46.9240506 L54.0949367,46.9240506 C54.5126582,46.9240506 54.9303797,46.5759494 54.9303797,46.0886076 C54.7911392,45.6708861 54.443038,45.2531646 54.0253165,45.2531646 Z" id="Shape" fill="url(#linearGradient-2)"></path>
            </g>
        </g>
    </g>
</svg>